<svg xmlns="http://www.w3.org/2000/svg" width="600" height="128" viewBox="0 0 170 64">
  <g fill="#42a5f5" stroke="#42a5f5" stroke-width="0" stroke-linecap="round">
    <g>
      <!-- F -->
      <line x1="28" y1="14" x2="45.5" y2="14" stroke-width="5" />
      <line x1="28" y1="32" x2="37.5" y2="32" stroke-width="5" />
      <circle cx="20" cy="14" r="3.5" />
      <circle cx="20" cy="23" r="3" />
      <circle cx="20" cy="32" r="3.5" />
      <circle cx="20" cy="41" r="3" />
      <circle cx="20" cy="50" r="3.5" />
    </g>
    <g transform="translate(34 0)">
      <!-- r -->
      <line x1="28" y1="32" x2="37.5" y2="32" stroke-width="5" />
      <circle cx="20" cy="32" r="3.5" />
      <circle cx="20" cy="41" r="3" />
      <circle cx="20" cy="50" r="3.5" />
    </g>
    <g transform="translate(64 0)">
      <!-- a -->
      <line x1="28" y1="32" x2="37.5" y2="32" stroke-width="5" />
      <line x1="28" y1="50" x2="42.5" y2="50" stroke-width="5" />
      <circle cx="20" cy="32" r="3.5" />
      <circle cx="20" cy="41" r="3" />
      <circle cx="37.5" cy="41" r="3" />
      <circle cx="20" cy="50" r="3.5" />
    </g>
    <g transform="translate(99 0)">
      <!-- c -->
      <line x1="28" y1="32" x2="37.5" y2="32" stroke-width="5" />
      <line x1="28" y1="50" x2="37.5" y2="50" stroke-width="5" />
      <circle cx="20" cy="32" r="3.5" />
      <circle cx="20" cy="41" r="3" />
      <circle cx="20" cy="50" r="3.5" />
    </g>
    <g transform="translate(129 0)">
      <!-- i -->
      <circle cx="20" cy="18" r="3.25" />
      <circle cx="20" cy="32" r="3.5" />
      <circle cx="20" cy="41" r="3" />
      <circle cx="20" cy="50" r="3.5" />
    </g>
  </g>
</svg>
