<svg xmlns="http://www.w3.org/2000/svg" width="600" height="128" viewBox="0 0 170 64"><g fill="#42a5f5" stroke="#42a5f5" stroke-linecap="round" stroke-width="0"><path stroke-width="5" d="M28 14h17.5M28 32h9.5"/><circle cx="20" cy="14" r="3.5" stroke="none"/><circle cx="20" cy="23" r="3" stroke="none"/><circle cx="20" cy="32" r="3.5" stroke="none"/><circle cx="20" cy="41" r="3" stroke="none"/><circle cx="20" cy="50" r="3.5" stroke="none"/><g transform="translate(34)"><path stroke-width="5" d="M28 32h9.5"/><circle cx="20" cy="32" r="3.5" stroke="none"/><circle cx="20" cy="41" r="3" stroke="none"/><circle cx="20" cy="50" r="3.5" stroke="none"/></g><g transform="translate(64)"><path stroke-width="5" d="M28 32h9.5M28 50h14.5"/><circle cx="20" cy="32" r="3.5" stroke="none"/><circle cx="20" cy="41" r="3" stroke="none"/><circle cx="37.5" cy="41" r="3" stroke="none"/><circle cx="20" cy="50" r="3.5" stroke="none"/></g><g transform="translate(99)"><path stroke-width="5" d="M28 32h9.5M28 50h9.5"/><circle cx="20" cy="32" r="3.5" stroke="none"/><circle cx="20" cy="41" r="3" stroke="none"/><circle cx="20" cy="50" r="3.5" stroke="none"/></g><g stroke="none" transform="translate(129)"><circle cx="20" cy="18" r="3.25"/><circle cx="20" cy="32" r="3.5"/><circle cx="20" cy="41" r="3"/><circle cx="20" cy="50" r="3.5"/></g></g></svg>
